<svg width="32" height="32" viewBox="0 0 32 32" fill="none" xmlns="http://www.w3.org/2000/svg">
<path d="M17 12.6429C17 12.4724 16.9157 12.3089 16.7657 12.1883C16.6157 12.0677 16.4123 12 16.2001 12C15.988 12 15.7845 12.0677 15.6345 12.1883C15.4845 12.3089 15.4002 12.4724 15.4002 12.6429V16.9655L13.1141 20.0256C13.0049 20.1719 12.9724 20.3471 13.0239 20.5126C13.0753 20.6781 13.2065 20.8205 13.3885 20.9083C13.5705 20.9961 13.7885 21.0222 13.9944 20.9808C14.2004 20.9395 14.3775 20.834 14.4868 20.6878L16.8864 17.4734C16.9608 17.3736 17.0001 17.2593 17 17.143V12.6429Z" fill="white"/>
<path d="M13.9374 5C13.7551 5 13.5802 5.07243 13.4513 5.20136C13.3224 5.33029 13.2499 5.50515 13.2499 5.68749C13.2499 5.86982 13.3224 6.04469 13.4513 6.17362C13.5802 6.30254 13.7551 6.37498 13.9374 6.37498H14.6249V7.8462C12.7526 8.1167 11.0014 8.9329 9.59024 10.1928C8.17905 11.4528 7.17039 13.1006 6.69026 14.9304C6.21014 16.7603 6.27982 18.691 6.89062 20.4815C7.50142 22.2719 8.62624 23.8427 10.1246 24.9977L9.29684 25.8254C9.16775 25.9543 9.09516 26.1292 9.09503 26.3116C9.0949 26.4941 9.16725 26.6691 9.29616 26.7982C9.42507 26.9273 9.59998 26.9999 9.78242 27C9.96485 27.0001 10.1399 26.9278 10.269 26.7989L11.2947 25.7731C12.7316 26.5797 14.3522 27.0021 15.9999 26.9996C17.6477 27.0021 19.2683 26.5797 20.7051 25.7731L21.7309 26.7989C21.86 26.9278 22.035 27.0001 22.2174 27C22.3999 26.9999 22.5748 26.9273 22.7037 26.7982C22.8326 26.6691 22.9049 26.4941 22.9048 26.3116C22.9047 26.1292 22.8321 25.9543 22.703 25.8254L21.8766 24.9977C23.375 23.8426 24.4998 22.2717 25.1105 20.4812C25.7213 18.6906 25.7908 16.7598 25.3106 14.9299C24.8303 13.1 23.8214 11.4522 22.4101 10.1924C20.9987 8.93253 19.2474 8.11649 17.3749 7.8462V6.37498H18.0624C18.2447 6.37498 18.4196 6.30254 18.5485 6.17362C18.6775 6.04469 18.7499 5.86982 18.7499 5.68749C18.7499 5.50515 18.6775 5.33029 18.5485 5.20136C18.4196 5.07243 18.2447 5 18.0624 5H13.9374ZM15.3647 9.14968C15.7876 9.11752 16.2123 9.11752 16.6352 9.14968C18.7618 9.31392 20.7422 10.2954 22.1608 11.8883C23.5794 13.4811 24.3259 15.5615 24.2437 17.6929C24.1616 19.8243 23.2571 21.841 21.72 23.3199C20.183 24.7988 18.1329 25.6249 15.9999 25.6249C13.8669 25.6249 11.8168 24.7988 10.2798 23.3199C8.74279 21.841 7.83829 19.8243 7.75611 17.6929C7.67393 15.5615 8.42045 13.4811 9.83904 11.8883C11.2576 10.2954 13.238 9.31392 15.3647 9.14968V9.14968ZM5 9.81242C5 10.8478 5.45787 11.7773 6.18249 12.407C7.24364 10.317 8.94203 8.61859 11.0321 7.55746C10.5727 7.02882 9.96274 6.65313 9.28393 6.48067C8.60512 6.30821 7.88983 6.34721 7.2338 6.59245C6.57776 6.83769 6.0123 7.27748 5.61309 7.85293C5.21387 8.42838 4.99997 9.11205 5 9.81242H5ZM23.5624 6.37498C22.527 6.37498 21.5975 6.83284 20.9678 7.55746C23.0578 8.61859 24.7562 10.317 25.8174 12.407C26.346 11.9476 26.7217 11.3377 26.8942 10.6589C27.0666 9.98006 27.0276 9.26477 26.7824 8.60875C26.5371 7.95272 26.0973 7.38726 25.5219 6.98806C24.9464 6.58885 24.2627 6.37494 23.5624 6.37498V6.37498Z" fill="white"/>
</svg>
