<svg width="31" height="26" viewBox="0 0 31 26" fill="none" xmlns="http://www.w3.org/2000/svg">
<path fill-rule="evenodd" clip-rule="evenodd" d="M21.7273 3.22596C21.8137 3.29741 21.8823 3.38229 21.9291 3.47573C21.9759 3.56917 22 3.66935 22 3.77052C22 3.87168 21.9759 3.97186 21.9291 4.0653C21.8823 4.15875 21.8137 4.24362 21.7273 4.31507L11.2427 13.0002L21.7273 21.6853C21.9016 21.8298 21.9995 22.0256 21.9995 22.2299C21.9995 22.4341 21.9016 22.63 21.7273 22.7744C21.553 22.9189 21.3165 23 21.07 23C20.8235 23 20.5871 22.9189 20.4127 22.7744L9.27273 13.5448C9.18628 13.4733 9.11769 13.3884 9.07089 13.295C9.02409 13.2015 9 13.1014 9 13.0002C9 12.899 9.02409 12.7989 9.07089 12.7054C9.11769 12.612 9.18628 12.5271 9.27273 12.4556L20.4127 3.22596C20.499 3.15434 20.6014 3.09751 20.7142 3.05873C20.827 3.01996 20.9479 3 21.07 3C21.1921 3 21.313 3.01996 21.4258 3.05873C21.5386 3.09751 21.641 3.15434 21.7273 3.22596V3.22596Z" fill="black"/>
</svg>
