<svg width="32" height="32" viewBox="0 0 32 32" fill="none" xmlns="http://www.w3.org/2000/svg">
<g clip-path="url(#clip0)">
<path d="M16 30C12.287 30 8.72601 28.525 6.1005 25.8995C3.475 23.274 2 19.713 2 16C2 12.287 3.475 8.72601 6.1005 6.1005C8.72601 3.475 12.287 2 16 2C19.713 2 23.274 3.475 25.8995 6.1005C28.525 8.72601 30 12.287 30 16C30 19.713 28.525 23.274 25.8995 25.8995C23.274 28.525 19.713 30 16 30ZM16 32C20.2435 32 24.3131 30.3143 27.3137 27.3137C30.3143 24.3131 32 20.2435 32 16C32 11.7565 30.3143 7.68687 27.3137 4.68629C24.3131 1.68571 20.2435 0 16 0C11.7565 0 7.68687 1.68571 4.68629 4.68629C1.68571 7.68687 0 11.7565 0 16C0 20.2435 1.68571 24.3131 4.68629 27.3137C7.68687 30.3143 11.7565 32 16 32V32Z" fill="black"/>
<path d="M8.56999 24.866C8.79967 24.9986 9.07262 25.0345 9.32879 24.9659C9.58497 24.8973 9.80338 24.7297 9.93599 24.5C10.5502 23.4353 11.4341 22.5513 12.4987 21.9368C13.5632 21.3224 14.7708 20.9993 16 21C18.59 21 20.852 22.406 22.064 24.5C22.1975 24.7278 22.4158 24.8935 22.6711 24.961C22.9264 25.0285 23.198 24.9923 23.4267 24.8603C23.6554 24.7282 23.8226 24.5111 23.8917 24.2563C23.9609 24.0014 23.9265 23.7296 23.796 23.5C23.0062 22.1313 21.8699 20.9948 20.5013 20.2048C19.1327 19.4148 17.5802 18.9993 16 19C14.4199 18.9997 12.8675 19.4154 11.499 20.2053C10.1305 20.9953 8.99406 22.1316 8.204 23.5C8.07139 23.7297 8.03546 24.0026 8.1041 24.2588C8.17273 24.515 8.34032 24.7334 8.56999 24.866ZM14 13C14 14.656 13.104 16 12 16C10.896 16 9.99999 14.656 9.99999 13C9.99999 11.344 10.896 10 12 10C13.104 10 14 11.344 14 13ZM22 13C22 14.656 21.104 16 20 16C18.896 16 18 14.656 18 13C18 11.344 18.896 10 20 10C21.104 10 22 11.344 22 13Z" fill="black"/>
</g>
<defs>
<clipPath id="clip0">
<rect width="32" height="32" fill="white"/>
</clipPath>
</defs>
</svg>
