<svg width="38" height="38" viewBox="0 0 38 38" fill="none" xmlns="http://www.w3.org/2000/svg">
<path d="M19.5991 8.23082C19.5205 8.15765 19.4271 8.0996 19.3243 8.06C19.2215 8.02039 19.1113 8 19 8C18.8887 8 18.7785 8.02039 18.6757 8.06C18.5729 8.0996 18.4795 8.15765 18.4009 8.23082L8.24708 17.6588C8.16855 17.7319 8.10631 17.8186 8.06392 17.9141C8.02152 18.0095 7.9998 18.1118 8 18.215V29.2143C8 29.4227 8.08915 29.6225 8.24783 29.7699C8.40652 29.9172 8.62174 30 8.84616 30H16.4615C16.686 30 16.9012 29.9172 17.0599 29.7699C17.2185 29.6225 17.3077 29.4227 17.3077 29.2143V22.929H20.6923V29.2143C20.6923 29.4227 20.7815 29.6225 20.9401 29.7699C21.0988 29.9172 21.314 30 21.5385 30H29.1538C29.3783 30 29.5935 29.9172 29.7522 29.7699C29.9109 29.6225 30 29.4227 30 29.2143V18.215C30.0002 18.1118 29.9785 18.0095 29.9361 17.9141C29.8937 17.8186 29.8314 17.7319 29.7529 17.6588L27.4615 15.5328V10.3584C27.4615 10.15 27.3724 9.95019 27.2137 9.80285C27.055 9.65551 26.8398 9.57273 26.6154 9.57273H24.9231C24.6987 9.57273 24.4834 9.65551 24.3248 9.80285C24.1661 9.95019 24.0769 10.15 24.0769 10.3584V12.3901L19.5991 8.23082ZM9.69231 28.4287V18.5403L19 9.898L28.3077 18.5403V28.4287H22.3846V22.1434C22.3846 21.935 22.2955 21.7352 22.1368 21.5878C21.9781 21.4405 21.7629 21.3577 21.5385 21.3577H16.4615C16.2371 21.3577 16.0219 21.4405 15.8632 21.5878C15.7045 21.7352 15.6154 21.935 15.6154 22.1434V28.4287H9.69231Z" fill="black"/>
</svg>
