<svg width="38" height="38" viewBox="0 0 38 38" fill="none" xmlns="http://www.w3.org/2000/svg">
<path d="M16.4615 29.2143V23.7068C16.4615 23.3219 16.8846 22.929 17.3077 22.929H20.6923C21.1154 22.929 21.5385 23.3219 21.5385 23.7147V29.2143C21.5385 29.4227 21.6276 29.6225 21.7863 29.7699C21.945 29.9172 22.1602 30 22.3846 30H29.1538C29.3783 30 29.5935 29.9172 29.7522 29.7699C29.9109 29.6225 30 29.4227 30 29.2143V18.215C30.0002 18.1118 29.9785 18.0095 29.9361 17.9141C29.8937 17.8186 29.8314 17.7319 29.7529 17.6588L27.4615 15.5328V10.3584C27.4615 10.15 27.3724 9.95019 27.2137 9.80285C27.055 9.65551 26.8398 9.57273 26.6154 9.57273H24.9231C24.6987 9.57273 24.4834 9.65551 24.3248 9.80285C24.1661 9.95019 24.0769 10.15 24.0769 10.3584V12.3901L19.5991 8.23082C19.5205 8.15765 19.4271 8.0996 19.3243 8.06C19.2215 8.02039 19.1113 8 19 8C18.8887 8 18.7785 8.02039 18.6757 8.06C18.5729 8.0996 18.4795 8.15765 18.4009 8.23082L8.24708 17.6588C8.16855 17.7319 8.10631 17.8186 8.06392 17.9141C8.02152 18.0095 7.9998 18.1118 8 18.215V29.2143C8 29.4227 8.08915 29.6225 8.24783 29.7699C8.40652 29.9172 8.62174 30 8.84616 30H15.6154C15.8398 30 16.055 29.9172 16.2137 29.7699C16.3724 29.6225 16.4615 29.4227 16.4615 29.2143Z" fill="black"/>
</svg>
