<svg width="38" height="38" viewBox="0 0 38 38" fill="none" xmlns="http://www.w3.org/2000/svg">
<path d="M16.5 19C17.6272 19 18.7082 18.4732 19.5052 17.5355C20.3022 16.5979 20.75 15.3261 20.75 14C20.75 12.6739 20.3022 11.4021 19.5052 10.4645C18.7082 9.52678 17.6272 9 16.5 9C15.3728 9 14.2918 9.52678 13.4948 10.4645C12.6978 11.4021 12.25 12.6739 12.25 14C12.25 15.3261 12.6978 16.5979 13.4948 17.5355C14.2918 18.4732 15.3728 19 16.5 19V19ZM19.3333 14C19.3333 14.8841 19.0348 15.7319 18.5035 16.357C17.9721 16.9821 17.2514 17.3333 16.5 17.3333C15.7486 17.3333 15.0279 16.9821 14.4965 16.357C13.9652 15.7319 13.6667 14.8841 13.6667 14C13.6667 13.1159 13.9652 12.2681 14.4965 11.643C15.0279 11.0179 15.7486 10.6667 16.5 10.6667C17.2514 10.6667 17.9721 11.0179 18.5035 11.643C19.0348 12.2681 19.3333 13.1159 19.3333 14V14ZM25 27.3333C25 29 23.5833 29 23.5833 29H9.41667C9.41667 29 8 29 8 27.3333C8 25.6667 9.41667 20.6667 16.5 20.6667C23.5833 20.6667 25 25.6667 25 27.3333ZM23.5833 27.3267C23.5819 26.9167 23.3652 25.6833 22.4047 24.5533C21.481 23.4667 19.7427 22.3333 16.5 22.3333C13.2558 22.3333 11.519 23.4667 10.5953 24.5533C9.63483 25.6833 9.4195 26.9167 9.41667 27.3267H23.5833Z" fill="black"/>
<path fill-rule="evenodd" clip-rule="evenodd" d="M29.7864 14.2202C29.8541 14.2899 29.9078 14.3726 29.9445 14.4637C29.9811 14.5548 30 14.6524 30 14.751C30 14.8496 29.9811 14.9473 29.9445 15.0383C29.9078 15.1294 29.8541 15.2121 29.7864 15.2818L25.424 19.7798C25.3564 19.8496 25.2762 19.905 25.1879 19.9428C25.0995 19.9805 25.0048 20 24.9092 20C24.8136 20 24.7189 19.9805 24.6305 19.9428C24.5422 19.905 24.462 19.8496 24.3944 19.7798L22.2132 17.5308C22.0767 17.39 22 17.1991 22 17C22 16.8009 22.0767 16.61 22.2132 16.4692C22.3497 16.3285 22.5349 16.2494 22.728 16.2494C22.9211 16.2494 23.1062 16.3285 23.2428 16.4692L24.9092 18.189L28.7569 14.2202C28.8244 14.1504 28.9046 14.095 28.993 14.0572C29.0813 14.0195 29.176 14 29.2716 14C29.3673 14 29.462 14.0195 29.5503 14.0572C29.6386 14.095 29.7189 14.1504 29.7864 14.2202V14.2202Z" fill="black"/>
</svg>
