<svg width="38" height="38" viewBox="0 0 38 38" fill="none" xmlns="http://www.w3.org/2000/svg">
<path fill-rule="evenodd" clip-rule="evenodd" d="M29.8131 14.2202C29.8723 14.2899 29.9193 14.3726 29.9514 14.4637C29.9835 14.5548 30 14.6524 30 14.751C30 14.8496 29.9835 14.9473 29.9514 15.0383C29.9193 15.1294 29.8723 15.2121 29.8131 15.2818L25.996 19.7798C25.9369 19.8496 25.8667 19.905 25.7894 19.9428C25.7121 19.9805 25.6292 20 25.5456 20C25.4619 20 25.379 19.9805 25.3017 19.9428C25.2244 19.905 25.1542 19.8496 25.0951 19.7798L23.1866 17.5308C23.0671 17.39 23 17.1991 23 17C23 16.8009 23.0671 16.61 23.1866 16.4692C23.306 16.3285 23.468 16.2494 23.637 16.2494C23.8059 16.2494 23.968 16.3285 24.0874 16.4692L25.5456 18.189L28.9123 14.2202C28.9714 14.1504 29.0416 14.095 29.1188 14.0572C29.1961 14.0195 29.279 14 29.3627 14C29.4464 14 29.5292 14.0195 29.6065 14.0572C29.6838 14.095 29.754 14.1504 29.8131 14.2202V14.2202Z" fill="black"/>
<path d="M9.41667 29C9.41667 29 8 29 8 27.3333C8 25.6667 9.41667 20.6667 16.5 20.6667C23.5833 20.6667 25 25.6667 25 27.3333C25 29 23.5833 29 23.5833 29H9.41667ZM16.5 19C17.6272 19 18.7082 18.4732 19.5052 17.5355C20.3022 16.5979 20.75 15.3261 20.75 14C20.75 12.6739 20.3022 11.4021 19.5052 10.4645C18.7082 9.52678 17.6272 9 16.5 9C15.3728 9 14.2918 9.52678 13.4948 10.4645C12.6978 11.4021 12.25 12.6739 12.25 14C12.25 15.3261 12.6978 16.5979 13.4948 17.5355C14.2918 18.4732 15.3728 19 16.5 19V19Z" fill="black"/>
</svg>
