<svg width="32" height="32" viewBox="0 0 32 32" fill="none" xmlns="http://www.w3.org/2000/svg">
<path d="M6 19C5.20435 19 4.44129 18.6839 3.87868 18.1213C3.31607 17.5587 3 16.7956 3 16C3 15.2044 3.31607 14.4413 3.87868 13.8787C4.44129 13.3161 5.20435 13 6 13C6.79565 13 7.55871 13.3161 8.12132 13.8787C8.68393 14.4413 9 15.2044 9 16C9 16.7956 8.68393 17.5587 8.12132 18.1213C7.55871 18.6839 6.79565 19 6 19ZM16 19C15.2044 19 14.4413 18.6839 13.8787 18.1213C13.3161 17.5587 13 16.7956 13 16C13 15.2044 13.3161 14.4413 13.8787 13.8787C14.4413 13.3161 15.2044 13 16 13C16.7956 13 17.5587 13.3161 18.1213 13.8787C18.6839 14.4413 19 15.2044 19 16C19 16.7956 18.6839 17.5587 18.1213 18.1213C17.5587 18.6839 16.7956 19 16 19ZM26 19C25.2044 19 24.4413 18.6839 23.8787 18.1213C23.3161 17.5587 23 16.7956 23 16C23 15.2044 23.3161 14.4413 23.8787 13.8787C24.4413 13.3161 25.2044 13 26 13C26.7956 13 27.5587 13.3161 28.1213 13.8787C28.6839 14.4413 29 15.2044 29 16C29 16.7956 28.6839 17.5587 28.1213 18.1213C27.5587 18.6839 26.7956 19 26 19Z" fill="black"/>
</svg>
