<svg width="32" height="32" viewBox="0 0 32 32" fill="white" xmlns="http://www.w3.org/2000/svg">
<path fill-rule="evenodd" clip-rule="evenodd" d="M7.5 7.25C6.9477 7.25 6.5 7.6977 6.5 8.25V23.5C6.5 24.0523 6.9477 24.5 7.5 24.5H24.5C25.0523 24.5 25.5 24.0523 25.5 23.5V8.25C25.5 7.6977 25.0523 7.25 24.5 7.25H7.5ZM5.5 8.25C5.5 7.14545 6.39545 6.25 7.5 6.25H24.5C25.6046 6.25 26.5 7.14545 26.5 8.25V23.5C26.5 24.6046 25.6046 25.5 24.5 25.5H7.5C6.39545 25.5 5.5 24.6046 5.5 23.5V8.25Z" fill="white"/>
<path fill-rule="evenodd" clip-rule="evenodd" d="M7.5 16.5C7.5 15.9477 7.9477 15.5 8.5 15.5H19.25C19.5261 15.5 19.75 15.7239 19.75 16C19.75 16.2761 19.5261 16.5 19.25 16.5H8.5V17.75C8.5 18.0261 8.27615 18.25 8 18.25C7.72385 18.25 7.5 18.0261 7.5 17.75V16.5ZM21 16C21 15.7239 21.2239 15.5 21.5 15.5H23.5C24.0523 15.5 24.5 15.9477 24.5 16.5V17.75C24.5 18.0261 24.2761 18.25 24 18.25C23.7239 18.25 23.5 18.0261 23.5 17.75V16.5H21.5C21.2239 16.5 21 16.2761 21 16ZM8 19C8.27615 19 8.5 19.2239 8.5 19.5V22.5H9.75C10.0261 22.5 10.25 22.7239 10.25 23C10.25 23.2761 10.0261 23.5 9.75 23.5H8.5C7.9477 23.5 7.5 23.0523 7.5 22.5V19.5C7.5 19.2239 7.72385 19 8 19ZM24 20.5C24.2761 20.5 24.5 20.7239 24.5 21V22.5C24.5 23.0523 24.0523 23.5 23.5 23.5H13.25C12.9739 23.5 12.75 23.2761 12.75 23C12.75 22.7239 12.9739 22.5 13.25 22.5H23.5V21C23.5 20.7239 23.7239 20.5 24 20.5Z" fill="white"/>
<path fill-rule="evenodd" clip-rule="evenodd" d="M14.3452 11.3876C14.5404 11.1923 14.857 11.1923 15.0523 11.3876L16.82 13.1554C17.0153 13.3506 17.0153 13.6672 16.82 13.8625C16.6248 14.0577 16.3082 14.0577 16.1129 13.8625L14.3452 12.0947C14.1499 11.8994 14.1499 11.5829 14.3452 11.3876Z" fill="white"/>
<path fill-rule="evenodd" clip-rule="evenodd" d="M10.5515 13.2665C12.3375 8.08727 19.6624 8.08727 21.4484 13.2665C21.5722 13.6258 21.3053 14 20.9254 14H11.0745C10.6945 14 10.4277 13.6257 10.5515 13.2665ZM20.257 13H11.7429C13.4573 9.50942 18.5426 9.50942 20.257 13Z" fill="white"/>
</svg>
