<svg width="32" height="32" viewBox="0 0 32 32" fill="none" xmlns="http://www.w3.org/2000/svg">
<path d="M5.04928 9.43946C5.1171 9.26935 5.24929 9.1333 5.41679 9.06123C5.58429 8.98916 5.77339 8.98696 5.9425 9.05512L8.35694 10.027C8.8483 10.2247 9.39642 10.2247 9.88778 10.027L11.2812 9.46573C12.1003 9.1361 13.014 9.1361 13.8331 9.46573L15.2279 10.027C15.7192 10.2247 16.2673 10.2247 16.7587 10.027L18.1521 9.46573C18.9712 9.1361 19.8849 9.1361 20.704 9.46573L22.0988 10.027C22.5901 10.2247 23.1383 10.2247 23.6296 10.027L26.0441 9.05512C26.1282 9.01912 26.2186 9.00039 26.3101 9.00001C26.4015 8.99963 26.4921 9.01761 26.5765 9.0529C26.661 9.08819 26.7375 9.14008 26.8018 9.20553C26.866 9.27098 26.9166 9.34868 26.9507 9.43406C26.9847 9.51944 27.0014 9.6108 26.9999 9.70277C26.9984 9.79475 26.9786 9.88549 26.9418 9.96969C26.905 10.0539 26.8518 10.1298 26.7854 10.1931C26.7191 10.2564 26.6408 10.3057 26.5553 10.3381L24.1394 11.31C23.3204 11.6396 22.4066 11.6396 21.5876 11.31L20.1942 10.7487C19.7028 10.551 19.1547 10.551 18.6633 10.7487L17.2685 11.31C16.4494 11.6396 15.5357 11.6396 14.7167 11.31L13.3232 10.7487C12.8319 10.551 12.2838 10.551 11.7924 10.7487L10.3976 11.31C9.57853 11.6396 8.66481 11.6396 7.84574 11.31L5.4313 10.3381C5.26222 10.2699 5.12699 10.1369 5.05535 9.96836C4.98372 9.79984 4.98153 9.6096 5.04928 9.43946V9.43946ZM5.04928 13.587C5.1171 13.4169 5.24929 13.2809 5.41679 13.2088C5.58429 13.1367 5.77339 13.1345 5.9425 13.2027L8.35694 14.1746C8.8483 14.3723 9.39642 14.3723 9.88778 14.1746L11.2812 13.6133C12.1003 13.2837 13.014 13.2837 13.8331 13.6133L15.2279 14.1746C15.7192 14.3723 16.2673 14.3723 16.7587 14.1746L18.1521 13.6133C18.9712 13.2837 19.8849 13.2837 20.704 13.6133L22.0988 14.1746C22.5901 14.3723 23.1383 14.3723 23.6296 14.1746L26.0441 13.2027C26.1282 13.1667 26.2186 13.148 26.3101 13.1476C26.4015 13.1472 26.4921 13.1652 26.5765 13.2005C26.661 13.2358 26.7375 13.2877 26.8018 13.3531C26.866 13.4186 26.9166 13.4963 26.9507 13.5816C26.9847 13.667 27.0014 13.7584 26.9999 13.8504C26.9984 13.9423 26.9786 14.0331 26.9418 14.1173C26.905 14.2015 26.8518 14.2774 26.7854 14.3407C26.7191 14.4039 26.6408 14.4532 26.5553 14.4857L24.1394 15.4576C23.3204 15.7872 22.4066 15.7872 21.5876 15.4576L20.1942 14.8963C19.7028 14.6986 19.1547 14.6986 18.6633 14.8963L17.2685 15.4576C16.4494 15.7872 15.5357 15.7872 14.7167 15.4576L13.3232 14.8963C12.8319 14.6986 12.2838 14.6986 11.7924 14.8963L10.3976 15.4576C9.57853 15.7872 8.66481 15.7872 7.84574 15.4576L5.4313 14.4857C5.26222 14.4175 5.12699 14.2845 5.05535 14.1159C4.98372 13.9474 4.98153 13.7572 5.04928 13.587V13.587ZM5.04928 17.7346C5.1171 17.5645 5.24929 17.4285 5.41679 17.3564C5.58429 17.2843 5.77339 17.2821 5.9425 17.3503L8.35694 18.3222C8.8483 18.5199 9.39642 18.5199 9.88778 18.3222L11.2812 17.7609C12.1003 17.4313 13.014 17.4313 13.8331 17.7609L15.2279 18.3222C15.7192 18.5199 16.2673 18.5199 16.7587 18.3222L18.1521 17.7609C18.9712 17.4313 19.8849 17.4313 20.704 17.7609L22.0988 18.3222C22.5901 18.5199 23.1383 18.5199 23.6296 18.3222L26.0441 17.3503C26.1282 17.3143 26.2186 17.2956 26.3101 17.2952C26.4015 17.2948 26.4921 17.3128 26.5765 17.3481C26.661 17.3834 26.7375 17.4353 26.8018 17.5007C26.866 17.5662 26.9166 17.6438 26.9507 17.7292C26.9847 17.8146 27.0014 17.906 26.9999 17.9979C26.9984 18.0899 26.9786 18.1807 26.9418 18.2649C26.905 18.3491 26.8518 18.425 26.7854 18.4883C26.7191 18.5515 26.6408 18.6008 26.5553 18.6333L24.1394 19.6052C23.3204 19.9348 22.4066 19.9348 21.5876 19.6052L20.1942 19.0439C19.7028 18.8462 19.1547 18.8462 18.6633 19.0439L17.2685 19.6052C16.4494 19.9348 15.5357 19.9348 14.7167 19.6052L13.3232 19.0439C12.8319 18.8462 12.2838 18.8462 11.7924 19.0439L10.3976 19.6052C9.57853 19.9348 8.66481 19.9348 7.84574 19.6052L5.4313 18.6333C5.26222 18.565 5.12699 18.432 5.05535 18.2635C4.98372 18.095 4.98153 17.9048 5.04928 17.7346V17.7346ZM5.04928 21.8822C5.1171 21.7121 5.24929 21.5761 5.41679 21.504C5.58429 21.4319 5.77339 21.4297 5.9425 21.4979L8.35694 22.4698C8.8483 22.6675 9.39642 22.6675 9.88778 22.4698L11.2812 21.9085C12.1003 21.5789 13.014 21.5789 13.8331 21.9085L15.2279 22.4698C15.7192 22.6675 16.2673 22.6675 16.7587 22.4698L18.1521 21.9085C18.9712 21.5789 19.8849 21.5789 20.704 21.9085L22.0988 22.4698C22.5901 22.6675 23.1383 22.6675 23.6296 22.4698L26.0441 21.4979C26.1282 21.4619 26.2186 21.4431 26.3101 21.4428C26.4015 21.4424 26.4921 21.4604 26.5765 21.4957C26.661 21.5309 26.7375 21.5828 26.8018 21.6483C26.866 21.7137 26.9166 21.7914 26.9507 21.8768C26.9847 21.9622 27.0014 22.0536 26.9999 22.1455C26.9984 22.2375 26.9786 22.3282 26.9418 22.4124C26.905 22.4966 26.8518 22.5726 26.7854 22.6359C26.7191 22.6991 26.6408 22.7484 26.5553 22.7809L24.1394 23.7528C23.3204 24.0824 22.4066 24.0824 21.5876 23.7528L20.1942 23.1915C19.7028 22.9938 19.1547 22.9938 18.6633 23.1915L17.2685 23.7528C16.4494 24.0824 15.5357 24.0824 14.7167 23.7528L13.3232 23.1915C12.8319 22.9938 12.2838 22.9938 11.7924 23.1915L10.3976 23.7528C9.57853 24.0824 8.66481 24.0824 7.84574 23.7528L5.4313 22.7809C5.26222 22.7126 5.12699 22.5796 5.05535 22.4111C4.98372 22.2426 4.98153 22.0524 5.04928 21.8822V21.8822Z" fill="black"/>
</svg>
